<svg width="41.000000" height="44.000000" viewBox="0 0 41 44" fill="none" xmlns="http://www.w3.org/2000/svg" xmlns:xlink="http://www.w3.org/1999/xlink">
	<desc>
			Created with Pixso.
	</desc>
	<defs/>
	<path id="Vector" d="M37.31 38.2L37.24 38.2C37.24 38.2 37.18 38.43 36.97 38.7C36.66 39.12 36.06 39.63 35.3 40.01C34.54 40.39 33.61 40.64 32.62 40.64C31.46 40.64 30.19 40.31 28.83 39.37C27.53 38.46 26.86 37.74 26.41 37C26.07 36.45 25.84 35.86 25.63 35.1C25.3 33.96 25.02 32.46 24.41 30.49C23.81 28.53 22.86 26.11 21.21 23.06C19.88 20.64 18.75 17.03 18.76 13.61C18.76 12.18 18.95 10.78 19.38 9.5C19.82 8.22 20.48 7.06 21.45 6.06C23.74 3.69 26.37 2.76 28.88 2.75C30.7 2.75 32.44 3.26 33.85 4.11C35.27 4.97 36.34 6.15 36.88 7.47L39.43 6.41C38.62 4.46 37.12 2.86 35.27 1.75C33.42 0.64 31.21 0 28.88 3.05e-5C25.67 -0.01 22.24 1.25 19.46 4.14C18.19 5.46 17.31 7 16.77 8.62C16.22 10.23 16 11.93 16 13.61C16.01 17.62 17.26 21.55 18.78 24.38C20.18 26.96 21.02 29 21.58 30.69C22 31.96 22.27 33.03 22.5 34C22.86 35.45 23.13 36.73 23.81 38.02C24.15 38.66 24.59 39.28 25.15 39.87C25.72 40.47 26.41 41.05 27.25 41.63C29.04 42.88 30.91 43.4 32.62 43.4C34.64 43.4 36.4 42.7 37.69 41.78C38.34 41.31 38.88 40.78 39.29 40.2C39.69 39.62 39.99 38.98 40 38.2L37.31 38.2Z" fill="#FFFFFF" fill-opacity="1.000000" fill-rule="nonzero"/>
	<path id="Vector" d="M31.53 21.78C30.56 21.96 29.68 22.51 29.07 23.34C28.46 24.16 28.13 25.24 28.13 26.48C28.13 27.14 28.22 27.84 28.42 28.58C28.76 29.87 29.35 30.91 30.14 31.66C30.92 32.41 31.91 32.85 32.95 32.84C34.02 32.85 35.09 32.37 35.95 31.53C36.52 30.98 36.87 30.27 37.07 29.51C37.28 28.76 37.36 27.94 37.36 27.07C37.36 25.61 37.14 24.01 36.87 22.34C36.59 20.68 36.24 18.97 35.96 17.34C35.65 15.57 35.15 13.68 34.16 12.13C33.66 11.35 33.02 10.66 32.21 10.16C31.4 9.66 30.41 9.37 29.32 9.38C29.23 9.38 29.15 9.38 29.07 9.38C27.73 9.42 26.59 9.92 25.82 10.73C25.05 11.54 24.65 12.58 24.5 13.66C24.42 14.22 24.82 14.75 25.39 14.83C25.95 14.9 26.47 14.51 26.55 13.94L26.55 13.94C26.66 13.18 26.93 12.57 27.32 12.16C27.71 11.76 28.24 11.49 29.14 11.45L29.32 11.44C30.07 11.45 30.63 11.62 31.13 11.92C31.86 12.37 32.46 13.16 32.93 14.2C33.39 15.22 33.71 16.47 33.92 17.69C34.19 19.22 34.49 20.78 34.75 22.27C34.05 21.89 33.27 21.69 32.47 21.69C32.16 21.69 31.84 21.72 31.53 21.78ZM35.26 26.54C35.27 26.55 35.27 26.57 35.27 26.58C35.28 26.74 35.29 26.91 35.29 27.07C35.29 27.81 35.22 28.46 35.08 28.96C34.94 29.47 34.74 29.82 34.5 30.05C33.95 30.58 33.42 30.77 32.95 30.77C32.49 30.77 32.02 30.6 31.56 30.16C31.11 29.73 30.68 29.04 30.42 28.05C30.26 27.46 30.2 26.94 30.2 26.48C30.2 25.61 30.43 24.99 30.74 24.57C31.05 24.15 31.45 23.91 31.91 23.82C32.1 23.78 32.29 23.76 32.47 23.76C33.16 23.76 33.79 24 34.29 24.45C34.78 24.9 35.16 25.57 35.26 26.54Z" fill="#FFFFFF" fill-opacity="1.000000" fill-rule="nonzero"/>
	<path id="Vector" d="M10.89 13.29C10.61 12.8 9.97 12.63 9.48 12.92C8.98 13.2 8.82 13.84 9.1 14.33C9.33 14.72 9.55 15.12 9.74 15.52C11.87 20.03 11.61 25.07 9.46 29.19C9.2 29.7 9.4 30.33 9.9 30.59C10.41 30.85 11.04 30.66 11.3 30.15C13.73 25.48 14.03 19.76 11.61 14.64C11.39 14.17 11.14 13.72 10.89 13.29Z" fill="#FFFFFF" fill-opacity="1.000000" fill-rule="nonzero"/>
	<path id="Vector" d="M6.44 15.54C6.15 15.04 5.52 14.88 5.02 15.16C4.53 15.45 4.36 16.09 4.65 16.58C4.81 16.86 4.96 17.13 5.1 17.41C6.59 20.58 6.41 24.11 4.9 27C4.64 27.5 4.84 28.13 5.34 28.39C5.85 28.66 6.47 28.46 6.74 27.95C8.53 24.52 8.75 20.3 6.97 16.53C6.8 16.18 6.62 15.85 6.44 15.54Z" fill="#FFFFFF" fill-opacity="1.000000" fill-rule="nonzero"/>
	<path id="Vector" d="M2.26 18.3C2.15 18.06 2.03 17.85 1.93 17.66C1.64 17.17 1.01 17 0.51 17.29C0.02 17.57 -0.15 18.21 0.13 18.7L0.13 18.7C0.24 18.88 0.32 19.03 0.39 19.18C1.25 21 1.14 23.01 0.28 24.67C0.02 25.18 0.21 25.81 0.72 26.07C1.23 26.33 1.85 26.14 2.11 25.63L2.12 25.63C3.12 23.7 3.36 21.39 2.64 19.22C2.53 18.91 2.41 18.6 2.26 18.3Z" fill="#FFFFFF" fill-opacity="1.000000" fill-rule="nonzero"/>
</svg>
